<?xml version="1.0"?><svg xmlns="http://www.w3.org/2000/svg" width="24" height="24" viewBox="0 0 24 24" fill="none"><path d="M8.03156 12L10.0158 13.9842L14.9763 9.02368M19.5261 14.2957L20.419 13.4028C20.791 13.0307 21 12.5261 21 12C21 11.4739 20.791 10.9693 20.419 10.5972L19.5261 9.70426C19.154 9.33223 18.9449 8.82762 18.9448 8.30141V7.03945C18.9448 6.5132 18.7357 6.00851 18.3636 5.63639C17.9915 5.26428 17.4868 5.05523 16.9606 5.05523H15.6986C15.1724 5.05512 14.6678 4.84599 14.2957 4.47385L13.4028 3.58095C13.0307 3.20897 12.5261 3 12 3C11.4739 3 10.9693 3.20897 10.5972 3.58095L9.70426 4.47385C9.33223 4.84599 8.82762 5.05512 8.30141 5.05523H7.03945C6.5132 5.05523 6.00851 5.26428 5.63639 5.63639C5.26428 6.00851 5.05523 6.5132 5.05523 7.03945V8.30141C5.05512 8.82762 4.84599 9.33223 4.47385 9.70426L3.58095 10.5972C3.20897 10.9693 3 11.4739 3 12C3 12.5261 3.20897 13.0307 3.58095 13.4028L4.47385 14.2957C4.84599 14.6678 5.05512 15.1724 5.05523 15.6986V16.9606C5.05523 17.4868 5.26428 17.9915 5.63639 18.3636C6.00851 18.7357 6.5132 18.9448 7.03945 18.9448H8.30141C8.82762 18.9449 9.33223 19.154 9.70426 19.5261L10.5972 20.419C10.9693 20.791 11.4739 21 12 21C12.5261 21 13.0307 20.791 13.4028 20.419L14.2957 19.5261C14.6678 19.154 15.1724 18.9449 15.6986 18.9448H16.9606C17.4868 18.9448 17.9915 18.7357 18.3636 18.3636C18.7357 17.9915 18.9448 17.4868 18.9448 16.9606V15.6986C18.9449 15.1724 19.154 14.6678 19.5261 14.2957Z" stroke="#383838" stroke-width="1.5" stroke-linecap="round" stroke-linejoin="round"/></svg>